<svg version="1.1" viewBox="0.0 0.0 378.59055118110234 377.98162729658793" fill="none" stroke="none" stroke-linecap="square" stroke-miterlimit="10" xmlns:xlink="http://www.w3.org/1999/xlink" xmlns="http://www.w3.org/2000/svg"><clipPath id="p.0"><path d="m0 0l378.59055 0l0 377.98163l-378.59055 0l0 -377.98163z" clip-rule="nonzero"/></clipPath><g clip-path="url(#p.0)"><path fill="#000000" fill-opacity="0.0" d="m0 0l378.59055 0l0 377.98163l-378.59055 0z" fill-rule="evenodd"/><path fill="#000000" d="m0 -2.6246718E-7l377.95276 0l0 377.95276l-377.95276 0z" fill-rule="evenodd"/><path stroke="#000000" stroke-width="1.0" stroke-linejoin="round" stroke-linecap="butt" d="m0 -2.6246718E-7l377.95276 0l0 377.95276l-377.95276 0z" fill-rule="evenodd"/><path fill="#ffffff" d="m19.173616 188.32375l0 0c0 -93.9319 76.14685 -170.07875 170.07874 -170.07875l0 0c45.107697 0 88.36789 17.91896 120.263824 49.814907c31.895966 31.89595 49.81491 75.15614 49.81491 120.26384l0 0c0 93.9319 -76.14682 170.07872 -170.07874 170.07872l0 0c-93.931885 0 -170.07874 -76.14682 -170.07874 -170.07872z" fill-rule="evenodd"/><path stroke="#000000" stroke-width="1.0" stroke-linejoin="round" stroke-linecap="butt" d="m19.173616 188.32375l0 0c0 -93.9319 76.14685 -170.07875 170.07874 -170.07875l0 0c45.107697 0 88.36789 17.91896 120.263824 49.814907c31.895966 31.89595 49.81491 75.15614 49.81491 120.26384l0 0c0 93.9319 -76.14682 170.07872 -170.07874 170.07872l0 0c-93.931885 0 -170.07874 -76.14682 -170.07874 -170.07872z" fill-rule="evenodd"/></g></svg>